HIERARCHY
ROOT Hips
{
	OFFSET 0.000000 0.000000 0.000000
	CHANNELS 6 Xposition Yposition Zposition Zrotation Yrotation Xrotation 
	JOINT LHipJoint
	{
		OFFSET 0.000000 0.000000 0.000000
		CHANNELS 3 Zrotation Yrotation Xrotation
		JOINT LeftUpLeg
		{
			OFFSET 1.363060 -1.794630 0.839290
			CHANNELS 3 Zrotation Yrotation Xrotation
			JOINT LeftLeg
			{
				OFFSET 2.448110 -6.726130 0.000000
				CHANNELS 3 Zrotation Yrotation Xrotation
				JOINT LeftFoot
				{
					OFFSET 2.562200 -7.039590 0.000000
					CHANNELS 3 Zrotation Yrotation Xrotation
					JOINT LeftToeBase
					{
						OFFSET 0.157640 -0.433110 2.322550
						CHANNELS 3 Zrotation Yrotation Xrotation
						End Site
						{
							OFFSET 0.000000 0.000000 0.000000
						}
					}
				}
			}
		}
	}
	JOINT RHipJoint
	{
		OFFSET 0.000000 0.000000 0.000000
		CHANNELS 3 Zrotation Yrotation Xrotation
		JOINT RightUpLeg
		{
			OFFSET -1.305520 -1.794630 0.839290
			CHANNELS 3 Zrotation Yrotation Xrotation
			JOINT RightLeg
			{
				OFFSET -2.542530 -6.985550 0.000000
				CHANNELS 3 Zrotation Yrotation Xrotation
				JOINT RightFoot
				{
					OFFSET -2.568260 -7.056230 0.000000
					CHANNELS 3 Zrotation Yrotation Xrotation
					JOINT RightToeBase
					{
						OFFSET -0.164730 -0.452590 2.363150
						CHANNELS 3 Zrotation Yrotation Xrotation
						End Site
						{
							OFFSET 0.000000 0.000000 0.000000
						}
					}
				}
			}
		}
	}
}
MOTION
Frames: 30
Frame Time: 0.008333
1.892931 17.718010 3.243458 -33.184900 -17.433104 41.158192 -19.478995 -1.572871 6.969607 33.344301 -14.468834 -26.012164 4.152593 0.484955 3.696687 1.467576 7.165813 1.038245 1.409300 -0.000000 -36.908000 3.025622 2.209416 4.859030 -36.186315 -17.202145 -40.312198 0.632342 0.832503 -8.094116 -1.310599 -8.642950 14.132442 -3.417900 0.000000 -66.070900
1.894122 17.711796 3.252916 -33.456463 -17.718157 41.394112 -19.473347 -1.616547 6.978252 33.325681 -14.038910 -26.062627 4.159297 0.446768 3.806918 1.477679 7.206275 0.869709 1.402600 -0.000000 -37.315801 2.990969 2.303208 4.782773 -34.143397 -17.783383 -41.451949 0.952713 0.890781 -8.018295 -1.129397 -7.499097 14.117742 -2.998900 0.000000 -67.907700
1.894898 17.704328 3.260343 -33.783649 -18.086152 41.616082 -19.477777 -1.666737 6.968817 33.252315 -13.439019 -26.054736 4.151900 0.409806 3.910799 1.463516 7.095988 0.680357 1.364700 -0.000001 -37.858300 2.955468 2.368764 4.634316 -31.931381 -18.225803 -42.256174 1.253680 0.954123 -8.516768 -1.074339 -6.684598 15.035302 -2.718600 -0.000000 -69.682400
1.894649 17.695704 3.265581 -34.123134 -18.508226 41.825267 -19.486325 -1.743832 6.913930 33.086372 -12.654830 -25.998722 4.121257 0.373223 4.000564 1.413701 6.775609 0.477049 1.286300 0.000000 -38.616501 2.936000 2.437006 4.511099 -29.769501 -18.540173 -43.676299 1.556926 0.953155 -7.528308 -1.001070 -6.135027 15.557100 -2.553600 -0.000000 -71.245001
1.891681 17.686606 3.267926 -34.429538 -18.962190 41.979080 -19.477190 -1.822769 6.833928 32.813487 -11.780138 -25.896832 4.064365 0.335538 4.058383 1.336388 6.298758 0.258063 1.179300 -0.000001 -39.468800 2.946581 2.491339 4.373766 -27.714909 -18.730682 -45.124690 1.838116 0.911673 -6.078930 -0.967183 -5.840926 16.183393 -2.491301 0.000000 -72.336600
1.885854 17.677364 3.267558 -34.681470 -19.425839 42.064277 -19.446144 -1.897696 6.733100 32.431539 -10.840923 -25.759753 3.980493 0.296956 4.075600 1.233038 5.673542 0.035293 1.049101 -0.000000 -40.414300 2.991704 2.526785 4.228085 -25.865522 -18.760450 -46.459625 2.079614 0.834475 -4.321038 -0.971184 -5.816832 16.889354 -2.542000 0.000000 -72.874700
1.877145 17.668299 3.264849 -34.860620 -19.878973 42.087755 -19.391677 -1.963432 6.621525 31.959525 -9.881586 -25.617298 3.873860 0.257578 4.058459 1.111076 4.938645 -0.188297 0.905299 0.000000 -41.357500 3.072817 2.539202 4.087992 -24.309042 -18.590316 -47.575135 2.264000 0.731702 -2.392150 -1.011867 -6.071697 17.628396 -2.715000 0.000000 -72.842800
1.865837 17.659857 3.260244 -34.966479 -20.313296 42.058493 -19.314689 -2.016996 6.501417 31.405607 -8.912434 -25.472598 3.747902 0.217066 3.978019 0.975275 4.122057 -0.375046 0.757900 -0.000000 -42.403700 3.187849 2.528578 3.964789 -23.066625 -18.207693 -48.436649 2.385742 0.613695 -0.386012 -1.081745 -6.553533 18.361187 -2.994300 0.000000 -72.418400
1.852644 17.652137 3.254569 -34.994162 -20.706728 41.998951 -19.219019 -2.054319 6.390859 30.813179 -7.999092 -25.370194 3.612788 0.175499 3.867102 0.838111 3.290216 -0.538752 0.616800 0.000000 -43.348199 3.328652 2.495522 3.866805 -22.110294 -17.638709 -49.060444 2.451474 0.489212 1.648811 -1.168938 -7.171252 19.024331 -3.340001 0.000000 -71.736099
1.838017 17.645416 3.248431 -34.948606 -21.048659 41.920548 -19.108284 -2.071580 6.298575 30.206622 -7.175871 -25.316007 3.475582 0.132795 3.719723 0.707215 2.489849 -0.663140 0.489700 0.000001 -44.195900 3.487425 2.442418 3.792955 -21.358252 -16.934232 -49.507572 2.477473 0.361186 3.702391 -1.257634 -7.798341 19.583887 -3.691600 0.000000 -71.028100
1.822597 17.639766 3.242439 -34.840716 -21.329663 41.835450 -18.989141 -2.070351 6.232864 29.609813 -6.451850 -25.333746 3.341582 0.089743 3.571317 0.585413 1.735179 -0.755579 0.376400 0.000000 -44.893500 3.654759 2.371436 3.735777 -20.710299 -16.151278 -49.843287 2.482705 0.230034 5.774056 -1.333457 -8.326147 20.026697 -3.993300 -0.000000 -70.482200
1.805852 17.635866 3.236504 -34.665367 -21.550811 41.735891 -18.855126 -2.040360 6.197796 29.028913 -5.892080 -25.385481 3.216219 0.045468 3.378604 0.482526 1.098974 -0.789106 0.286500 0.000000 -45.502700 3.831986 2.286950 3.686182 -20.088093 -15.366787 -50.131866 2.482534 0.089375 7.883551 -1.382479 -8.636595 20.346908 -4.181100 0.000000 -70.187900
1.789076 17.633191 3.231224 -34.450047 -21.707520 41.631463 -18.719557 -1.988431 6.197856 28.497698 -5.486423 -25.489269 3.104781 0.002929 3.199797 0.397741 0.572512 -0.794418 0.215200 -0.000000 -45.923700 4.007023 2.187875 3.629160 -19.404380 -14.611042 -50.395289 2.488622 -0.059884 10.003944 -1.400360 -8.712150 20.579796 -4.245400 0.000000 -70.198401
1.771885 17.632003 3.226380 -34.199552 -21.811700 41.515758 -18.579758 -1.915802 6.228527 28.009790 -5.231028 -25.628312 3.006563 -0.037412 3.042254 0.330466 0.156573 -0.773828 0.160700 0.000000 -46.200100 4.181338 2.077144 3.556323 -18.620443 -13.918729 -50.648727 2.504864 -0.219672 12.118097 -1.385032 -8.537858 20.756612 -4.179900 0.000001 -70.488200
1.754800 17.632096 3.221961 -33.933878 -21.875216 41.388181 -18.442509 -1.827451 6.283793 27.579795 -5.111803 -25.782058 2.923416 -0.072983 2.920223 0.279714 -0.154793 -0.740721 0.121000 0.000000 -46.332901 4.349570 1.953303 3.458857 -17.708054 -13.285427 -50.875945 2.530382 -0.386395 14.181842 -1.341203 -8.158273 20.917413 -4.010000 -0.000000 -70.976800
1.736817 17.633838 3.217508 -33.644990 -21.919446 41.239499 -18.296021 -1.721496 6.356454 27.180521 -5.137980 -25.923399 2.852072 -0.105295 2.815548 0.246725 -0.346932 -0.692435 0.097600 -0.000000 -46.368600 4.520285 1.821164 3.339535 -16.689679 -12.727969 -51.071902 2.559299 -0.559402 16.166226 -1.274151 -7.599792 21.100782 -3.752400 0.000000 -71.638699
1.718898 17.636596 3.213164 -33.362501 -21.961705 41.075881 -18.152437 -1.611663 6.434091 26.818382 -5.237159 -26.051609 2.790012 -0.131121 2.769060 0.223332 -0.481017 -0.656251 0.081500 0.000000 -46.317200 4.684787 1.677829 3.196658 -15.565183 -12.199114 -51.199391 2.586344 -0.728660 18.015457 -1.194433 -6.955292 21.330933 -3.454799 0.000000 -72.352800
1.700915 17.640157 3.208845 -33.093719 -22.021543 40.897910 -18.010940 -1.502508 6.507150 26.478288 -5.378978 -26.151580 2.733835 -0.150551 2.776343 0.206593 -0.577089 -0.638790 0.069800 -0.000000 -46.218500 4.843793 1.524583 3.036559 -14.362560 -11.675916 -51.239555 2.606016 -0.888168 19.697798 -1.110013 -6.282374 21.617689 -3.145700 -0.000000 -73.066800
1.681737 17.644806 3.204096 -32.823442 -22.120277 40.697661 -17.859493 -1.394180 6.566479 26.118874 -5.548893 -26.205747 2.676634 -0.166317 2.818934 0.194690 -0.644303 -0.638888 0.061500 -0.000000 -46.097200 5.005531 1.367712 2.868676 -13.126990 -11.161680 -51.191243 2.614228 -1.036872 21.206855 -1.024656 -5.594603 21.964732 -2.830099 -0.000000 -73.777400
1.662161 17.649628 3.199445 -32.575810 -22.265953 40.488776 -17.710422 -1.295110 6.606694 25.750165 -5.689991 -26.219682 2.617483 -0.177173 2.906358 0.181828 -0.726516 -0.669290 0.050500 0.000000 -45.988400 5.161740 1.204006 2.699283 -11.864752 -10.612645 -51.040740 2.610586 -1.167535 22.524250 -0.944238 -4.954436 22.346433 -2.537000 -0.000000 -74.434200
1.640576 17.655061 3.194280 -32.324346 -22.476904 40.259188 -17.546634 -1.203227 6.620353 25.316381 -5.788598 -26.182600 2.547186 -0.187576 3.016216 0.165771 -0.834575 -0.722946 0.035900 -0.000000 -45.900300 5.323998 1.042485 2.537420 -10.620656 -10.052319 -50.807729 2.594530 -1.284837 23.679245 -0.866418 -4.326385 22.744700 -2.246300 -0.000000 -75.012000
1.617135 17.660396 3.189131 -32.078523 -22.752220 40.023815 -17.375098 -1.120109 6.610243 24.826971 -5.820013 -26.107009 2.466180 -0.198238 3.141447 0.144496 -0.983522 -0.801305 0.016300 -0.000000 -45.848300 5.487776 0.881267 2.390624 -9.396487 -9.463747 -50.504729 2.568646 -1.387217 24.679677 -0.792205 -3.732443 23.130051 -1.968400 0.000000 -75.543000
1.590924 17.665592 3.183910 -31.825167 -23.095931 39.783231 -17.189323 -1.043137 6.577397 24.261595 -5.776991 -25.997686 2.370942 -0.212149 3.265445 0.117302 -1.175933 -0.897372 -0.007900 0.000000 -45.827700 5.657460 0.723964 2.265262 -8.207791 -8.861748 -50.157319 2.535222 -1.478731 25.554459 -0.718802 -3.147655 23.480813 -1.690400 -0.000000 -76.032400
1.561516 17.670403 3.178785 -31.560337 -23.505750 39.544712 -16.988294 -0.969600 6.526879 23.618458 -5.657788 -25.866627 2.261134 -0.231306 3.376198 0.084489 -1.408776 -1.004721 -0.035700 0.000000 -45.827900 5.833712 0.571384 2.166166 -7.056175 -8.256856 -49.791185 2.497575 -1.562393 26.326920 -0.643874 -2.556767 23.777404 -1.404900 0.000000 -76.461700
1.528442 17.674656 3.173812 -31.278398 -23.977371 39.315019 -16.770553 -0.896090 6.464947 22.899571 -5.469736 -25.726825 2.137304 -0.257452 3.464313 0.047432 -1.671341 -1.116560 -0.064900 0.000000 -45.830000 6.017371 0.423961 2.097362 -5.940931 -7.660296 -49.431562 2.458705 -1.641061 27.015998 -0.565736 -1.949060 24.008229 -1.107300 0.000001 -76.841600
1.491400 17.678229 3.169099 -30.975532 -24.504912 39.102111 -16.536078 -0.819215 6.398924 22.113335 -5.227052 -25.592099 2.001227 -0.291701 3.524431 0.008138 -1.948468 -1.226812 -0.093600 0.000000 -45.813000 6.208148 0.281068 2.061460 -4.857280 -7.082097 -49.099566 2.421680 -1.716835 27.633995 -0.483400 -1.321493 24.165177 -0.797600 -0.000000 -77.153800
1.450127 17.681095 3.164562 -30.647912 -25.082355 38.912505 -16.284504 -0.736080 6.335732 21.269625 -4.948673 -25.476496 1.855015 -0.334687 3.557031 -0.031027 -2.222098 -1.331550 -0.119400 -0.000000 -45.749399 6.405857 0.142017 2.060570 -3.802336 -6.528552 -48.810898 2.388786 -1.790837 28.184797 -0.397205 -0.681871 24.248022 -0.481500 0.000001 -77.436300
1.404803 17.683134 3.160167 -30.298546 -25.703216 38.752971 -16.018034 -0.645159 6.281488 20.384146 -4.654688 -25.391955 1.701827 -0.386006 3.568010 -0.067855 -2.475319 -1.429320 -0.140900 -0.000000 -45.621200 6.608328 0.005159 2.094661 -2.769508 -6.001867 -48.573507 2.362610 -1.863156 28.665886 -0.307958 -0.045342 24.254274 -0.168800 0.000000 -77.653500
1.355707 17.684358 3.155754 -29.929098 -26.361466 38.627314 -15.738830 -0.545928 6.240642 19.471784 -4.365235 -25.348152 1.544588 -0.444681 3.568496 -0.100421 -2.693155 -1.521578 -0.156700 0.000000 -45.410800 6.813209 -0.131178 2.162868 -1.754697 -5.499500 -48.387462 2.345112 -1.933024 29.068693 -0.217185 0.566621 24.183531 0.127499 -0.000000 -77.823800
1.303312 17.684796 3.151051 -29.542783 -27.052432 38.537073 -15.449672 -0.439224 6.215378 18.546997 -4.096856 -25.351543 1.386010 -0.509093 3.573489 -0.127359 -2.865085 -1.611990 -0.166400 0.000000 -45.110500 7.017575 -0.268499 2.262890 -0.755532 -5.015785 -48.245725 2.337962 -1.999090 29.382285 -0.126534 1.131909 24.033131 0.394100 -0.000001 -77.946400
